<?xml version="1.0" encoding="utf-8"?>
<svg version="1.1" xmlns="http://www.w3.org/2000/svg" xmlns:xlink="http://www.w3.org/1999/xlink" x="0px" y="0px"
	 viewBox="0 0 30 30" style="enable-background:new 0 0 30 30;" xml:space="preserve">
<defs>
  <style type="text/css">
    .logo-bg{fill:#3B82F6;stroke:#1E40AF;stroke-width:0.5;stroke-miterlimit:10;}
    .logo-icon{fill:#FFFFFF;}
    
    .logo-spin {
      animation: spin 8s linear infinite;
    }
    
    @keyframes spin {
      0% { transform: rotate(0deg); }
      100% { transform: rotate(360deg); }
    }
  </style>
</defs>

<g>
  <circle class="logo-bg" cx="15" cy="15" r="12"/>
  <g class="logo-spin">
    <path class="logo-icon" d="M15,6c2.2,0,4.2,0.9,5.7,2.3l1.4-1.4C20.3,5.2,17.8,4,15,4s-5.3,1.2-7.1,3l1.4,1.4C10.8,6.9,12.8,6,15,6z"/>
    <path class="logo-icon" d="M24,15c0-2.2-0.9-4.2-2.3-5.7l-1.4,1.4C21.1,11.8,22,13.8,22,16s-0.9,4.2-2.3,5.7l1.4,1.4C23.1,20.3,24,18.2,24,16V15z"/>
    <path class="logo-icon" d="M15,24c-2.2,0-4.2-0.9-5.7-2.3l-1.4,1.4c1.8,1.8,4.3,3,7.1,3s5.3-1.2,7.1-3l-1.4-1.4C19.2,23.1,17.2,24,15,24z"/>
    <path class="logo-icon" d="M6,15c0,2.2,0.9,4.2,2.3,5.7l1.4-1.4C8.9,18.2,8,16.2,8,14s0.9-4.2,2.3-5.7L8.9,6.9C6.9,8.8,6,11.8,6,14V15z"/>
    <circle class="logo-icon" cx="15" cy="15" r="3"/>
  </g>
</g>
</svg>
